<?xml version="1.0" standalone="no"?>
<!DOCTYPE svg PUBLIC "-//W3C//DTD SVG 20010904//EN"
 "http://www.w3.org/TR/2001/REC-SVG-20010904/DTD/svg10.dtd">
<svg version="1.0" xmlns="http://www.w3.org/2000/svg"
 width="50.000000pt" height="50.000000pt" viewBox="0 0 4513.000000 4933.000000"
 preserveAspectRatio="xMidYMid meet">
<g transform="translate(0.000000,4933.000000) scale(0.100000,-0.100000)"
fill="#ffffff" stroke="none">
<path d="M20070 45675 c-1718 -2010 -3127 -3655 -3131 -3655 -3 0 -286 241
-628 536 -342 294 -626 534 -632 532 -5 -2 -423 -636 -927 -1409 l-918 -1406
-3728 2884 c-2051 1586 -3730 2883 -3731 2881 -5 -6 1632 -7209 1938 -8528
l315 -1354 -248 -476 c-707 -1358 -1862 -3610 -2181 -4252 l-73 -146 -140 -52
c-893 -331 -1730 -880 -2354 -1544 -372 -395 -646 -790 -882 -1271 -279 -568
-436 -1131 -494 -1765 -8 -91 -79 -995 -156 -2010 l-141 -1845 -286 -605
c-557 -1177 -936 -1985 -1404 -2993 -237 -510 -269 -584 -269 -627 0 -92 50
-754 70 -935 139 -1224 540 -2670 1115 -4015 l83 -195 6 -150 c40 -1024 387
-2092 963 -2970 684 -1041 1652 -1822 2820 -2276 l122 -47 158 -144 c498 -453
906 -793 1423 -1185 2946 -2234 6808 -3983 12815 -5802 1073 -324 2923 -851
2990 -851 39 0 880 233 1705 471 3749 1086 6694 2133 9055 3222 2600 1199
4708 2545 6424 4103 l116 105 190 64 c753 250 1415 621 2025 1133 162 137 528
503 659 661 442 531 770 1116 972 1734 201 612 285 1257 250 1907 l-12 225 46
110 c536 1262 942 2756 1070 3935 17 164 65 818 65 897 0 58 20 13 -502 1133
-380 814 -674 1439 -1040 2214 l-341 718 -143 1852 c-147 1908 -157 2024 -200
2286 -342 2089 -1812 3832 -3824 4534 l-105 37 -177 352 c-233 461 -726 1429
-1094 2144 -162 314 -294 576 -294 582 0 13 854 3791 1864 8246 420 1854 763
3371 761 3373 -1 1 -1678 -1294 -3726 -2878 -2048 -1584 -3727 -2880 -3730
-2880 -4 0 -419 632 -924 1405 -504 773 -921 1405 -926 1405 -5 0 -289 -241
-631 -535 -342 -295 -625 -534 -629 -533 -5 2 -1413 1646 -3129 3653 -1716
2008 -3126 3651 -3133 3653 -7 1 -1418 -1643 -3137 -3653z m5820 -2140 c1448
-1694 2639 -3087 2646 -3095 11 -14 -93 -134 -773 -890 -432 -481 -810 -903
-840 -937 l-55 -63 238 -320 c132 -175 243 -319 247 -320 4 0 150 123 324 273
1574 1357 2679 2306 2685 2304 7 -2 1502 -2288 1708 -2610 41 -64 79 -117 83
-117 4 0 153 112 330 250 1760 1365 4793 3706 4795 3701 1 -4 -93 -425 -208
-936 -116 -512 -366 -1614 -555 -2450 -190 -836 -453 -1997 -585 -2580 -132
-583 -240 -1068 -240 -1077 0 -9 9 -32 19 -50 18 -32 491 -949 873 -1693 385
-748 1024 -2007 1533 -3019 l518 -1029 94 -43 c230 -107 531 -294 738 -460
141 -112 447 -418 554 -554 296 -374 507 -794 621 -1233 51 -199 44 -155 234
-1475 l165 -1144 212 -441 c707 -1472 1435 -3011 2166 -4580 l279 -598 -17
-235 c-22 -289 -31 -368 -75 -659 -168 -1095 -527 -2296 -1021 -3415 l-86
-194 34 -241 c32 -228 34 -255 34 -520 0 -297 -7 -370 -60 -605 -118 -530
-417 -1035 -843 -1424 -377 -345 -818 -602 -1327 -771 l-170 -56 -75 -87
c-281 -324 -840 -896 -1190 -1217 -1473 -1349 -3088 -2438 -5185 -3495 -2536
-1278 -5815 -2475 -10255 -3744 -269 -77 -563 -168 -677 -209 l-203 -75 0 732
0 731 -318 89 c-174 49 -544 156 -822 237 -4871 1420 -8203 2725 -10795 4227
-1301 754 -2439 1580 -3419 2482 l-183 168 -574 5 c-513 4 -590 7 -724 25
-465 66 -822 174 -1200 367 -352 178 -607 367 -891 656 -258 264 -440 521
-604 854 -280 566 -396 1172 -349 1813 6 81 100 772 210 1536 l199 1390 -41
175 c-96 415 -199 1026 -199 1181 0 36 54 154 597 1315 465 993 1198 2537
1628 3430 114 237 222 463 241 503 l33 72 -649 0 c-358 0 -650 2 -650 3 0 30
466 3239 480 3306 154 742 657 1395 1433 1859 648 389 1321 590 2134 638 l113
6 286 567 c775 1532 1381 2716 2050 4008 l224 432 -535 2448 c-295 1346 -669
3035 -831 3751 -163 717 -294 1305 -292 1307 2 2 3549 -2739 4950 -3826 91
-71 170 -129 175 -129 4 0 60 80 123 178 420 648 1662 2547 1668 2550 6 2
1085 -925 2645 -2270 196 -170 360 -308 364 -308 4 1 115 145 247 320 l238
320 -23 29 c-13 16 -392 438 -841 938 -802 891 -817 908 -799 928 10 11 1212
1417 2671 3123 l2653 3104 27 -29 c16 -15 1212 -1414 2660 -3108z"/>
<path d="M21612 42380 l-1592 -1880 835 -943 c459 -518 833 -948 830 -955 -2
-7 -927 -1236 -2055 -2732 l-2051 -2719 -377 301 c-207 166 -1598 1280 -3090
2476 -1493 1195 -2716 2171 -2719 2169 -5 -5 863 -3131 876 -3154 3 -6 97 134
211 318 113 181 210 328 216 327 6 -2 552 -419 1213 -928 1115 -857 1202 -926
1197 -950 -2 -14 -156 -563 -340 -1220 l-336 -1194 347 -861 c190 -473 347
-862 349 -863 1 -2 78 34 171 81 1234 623 2900 1048 4553 1162 222 15 889 39
896 32 2 -2 -62 -23 -143 -47 -880 -256 -1885 -696 -2678 -1173 -144 -86 -495
-315 -600 -391 l-50 -36 469 0 470 0 175 44 c1076 272 2248 442 3526 511 2212
119 4397 -68 6162 -525 l191 -50 444 0 443 1 -30 24 c-47 39 -336 234 -490
330 -816 512 -1891 993 -2830 1266 -80 23 -143 44 -141 46 7 7 674 -17 896
-32 1653 -114 3319 -539 4553 -1162 93 -47 170 -83 171 -81 2 1 159 390 349
863 l346 861 -339 1209 c-187 666 -340 1215 -340 1221 0 11 2403 1864 2417
1864 4 -1 98 -151 208 -334 146 -244 202 -330 207 -317 16 34 889 3153 885
3158 -3 3 -1395 -1108 -3093 -2469 -1698 -1360 -3089 -2473 -3092 -2473 -6 0
-4112 5445 -4112 5454 0 3 376 430 835 949 l835 942 -1576 1863 c-867 1024
-1584 1870 -1593 1880 -16 16 -107 -90 -1609 -1863z m2918 -5720 c711 -899
1297 -1640 1302 -1647 11 -14 -2621 -3289 -2633 -3276 -4 4 -597 741 -1318
1637 l-1311 1628 33 42 c18 22 611 771 1317 1664 1224 1547 1284 1622 1301
1605 9 -10 598 -754 1309 -1653z"/>
<path d="M8005 27819 c-158 -13 -357 -47 -520 -89 -529 -135 -1026 -433 -1282
-770 -76 -101 -164 -274 -193 -383 -12 -43 -74 -459 -139 -925 l-117 -847
2600 -3 c1429 -1 2601 -1 2602 1 2 1 31 298 66 660 l62 657 2414 0 2413 0 -6
-72 c-3 -40 -42 -728 -86 -1528 -44 -800 -82 -1456 -84 -1459 -3 -2 -2206
-750 -4897 -1661 -2691 -911 -4924 -1669 -4963 -1685 -110 -44 -302 -142 -390
-199 -314 -205 -506 -472 -569 -791 -9 -44 -165 -1153 -347 -2465 -310 -2231
-331 -2397 -336 -2570 -6 -207 10 -374 52 -547 163 -670 646 -1194 1302 -1413
130 -43 243 -70 408 -98 93 -15 639 -17 7486 -19 l7387 -3 6 172 c3 95 15 974
26 1953 11 979 21 1833 23 1898 l2 117 -2797 0 -2798 0 0 -32 c0 -42 -87
-1625 -96 -1735 l-6 -83 -2654 0 -2654 0 0 28 c0 34 429 4514 432 4517 2 2
2186 769 4853 1705 2668 936 4890 1717 4939 1736 384 148 675 387 793 652 14
31 36 100 50 152 31 122 28 9 58 2495 13 1117 27 2168 30 2338 l7 307 -6489
-1 c-3568 -1 -6533 -6 -6588 -10z"/>
<path d="M24114 27508 c4 -167 22 -1561 41 -3098 19 -1537 38 -2909 41 -3047
l6 -253 5194 0 c5022 0 5194 -1 5194 -18 0 -10 155 -1635 345 -3610 190 -1976
345 -3597 345 -3602 0 -7 -893 -10 -2658 -10 l-2657 0 -49 878 c-26 482 -50
905 -53 940 l-6 62 -2793 0 -2794 0 0 -112 c0 -62 11 -948 25 -1968 14 -1020
25 -1901 25 -1958 l0 -102 7383 3 c6889 3 7391 4 7511 20 597 79 1040 273
1393 611 220 210 361 462 408 730 38 219 70 -42 -555 4463 -313 2259 -577
4142 -586 4183 -51 236 -167 448 -347 637 -180 188 -391 339 -665 476 -317
158 -596 243 -1002 304 -107 16 -394 18 -4262 20 l-4148 3 0 22 c0 36 -159
2886 -165 2966 l-6 72 2413 0 2414 0 57 -607 c32 -335 61 -632 64 -660 l6 -53
2604 0 2603 0 -5 23 c-3 12 -48 330 -100 707 -52 377 -106 730 -119 785 -168
688 -741 1246 -1468 1431 -55 13 -141 32 -192 41 -84 16 -612 17 -6770 20
l-6678 3 6 -302z"/>
<path d="M11220 9388 c409 -376 1146 -896 1900 -1340 2159 -1271 4954 -2348
8165 -3146 518 -129 1305 -312 1341 -312 12 0 14 175 14 1105 l0 1105 23 4
c12 3 87 10 167 16 1327 100 3081 363 4680 701 2126 449 4458 1118 6303 1807
l287 107 -77 3 c-43 2 -2625 -29 -5738 -69 l-5660 -73 -5625 72 c-3094 40
-5672 73 -5730 72 l-105 -1 55 -51z"/>
</g>
</svg>
